HIERARCHY
ROOT Hips
{
	OFFSET 0.000000 0.000000 0.000000 
	CHANNELS 6 Xposition Yposition Zposition Zrotation Yrotation Xrotation
	JOINT LeftUpLeg
	{
		OFFSET 1.363060 -1.794630 0.839290 
		CHANNELS 3 Zrotation Yrotation Xrotation
		JOINT LeftLeg
		{
			OFFSET 2.448110 -6.726130 0.000000 
			CHANNELS 3 Zrotation Yrotation Xrotation
			JOINT LeftFoot
			{
				OFFSET 2.562200 -7.039590 0.000000 
				CHANNELS 3 Zrotation Yrotation Xrotation
				JOINT LeftToeBase
				{
					OFFSET 0.157640 -0.433110 2.322550 
					CHANNELS 3 Zrotation Yrotation Xrotation
					End Site
					{
						OFFSET 0.000000 0.000000 0.000000 
					}
				}
			}
		}
	}
	JOINT RightUpLeg
	{
		OFFSET -1.305520 -1.794630 0.839290 
		CHANNELS 3 Zrotation Yrotation Xrotation
		JOINT RightLeg
		{
			OFFSET -2.542530 -6.985550 0.000000 
			CHANNELS 3 Zrotation Yrotation Xrotation
			JOINT RightFoot
			{
				OFFSET -2.568260 -7.056230 0.000000 
				CHANNELS 3 Zrotation Yrotation Xrotation
				JOINT RightToeBase
				{
					OFFSET -0.164730 -0.452590 2.363150 
					CHANNELS 3 Zrotation Yrotation Xrotation
					End Site
					{
						OFFSET 0.000000 0.000000 0.000000 
					}
				}
			}
		}
	}
	JOINT Spine
	{
		OFFSET 0.028270 2.035590 -0.193380 
		CHANNELS 3 Zrotation Yrotation Xrotation
		JOINT Spine1
		{
			OFFSET 0.056720 2.048850 -0.042750 
			CHANNELS 3 Zrotation Yrotation Xrotation
			JOINT Neck1
			{
				OFFSET -0.054170 1.746240 0.172020 
				CHANNELS 3 Zrotation Yrotation Xrotation
				JOINT Head
				{
					OFFSET 0.104070 1.761360 -0.123970 
					CHANNELS 3 Zrotation Yrotation Xrotation
					End Site
					{
						OFFSET 0.000000 0.000000 0.000000 
					}
				}
			}
			JOINT LeftArm
			{
				OFFSET 3.362410 1.200890 -0.311210 
				CHANNELS 3 Zrotation Yrotation Xrotation
				JOINT LeftForeArm
				{
					OFFSET 4.983000 -0.000000 -0.000000 
					CHANNELS 3 Zrotation Yrotation Xrotation
					JOINT LeftHand
					{
						OFFSET 3.483560 -0.000000 -0.000000 
						CHANNELS 3 Zrotation Yrotation Xrotation
						JOINT LeftHandIndex1
						{
							OFFSET 0.715260 -0.000000 -0.000000 
							CHANNELS 3 Zrotation Yrotation Xrotation
							End Site
							{
								OFFSET 0.000000 0.000000 0.000000 
							}
						}
					}
				}
			}
			JOINT RightArm
			{
				OFFSET -3.136600 1.374050 -0.404650 
				CHANNELS 3 Zrotation Yrotation Xrotation
				JOINT RightForeArm
				{
					OFFSET -5.241900 -0.000000 -0.000000 
					CHANNELS 3 Zrotation Yrotation Xrotation
					JOINT RightHand
					{
						OFFSET -3.444170 -0.000000 -0.000000 
						CHANNELS 3 Zrotation Yrotation Xrotation
						JOINT RightHandIndex1
						{
							OFFSET -0.622530 -0.000000 -0.000000 
							CHANNELS 3 Zrotation Yrotation Xrotation
							End Site
							{
								OFFSET 0.000000 0.000000 0.000000 
							}
						}
					}
				}
			}
		}
	}
}
MOTION
Frames: 9
Frame Time: 0.041667
-11.502801 17.857366 1.625860 -19.543542 82.217617 -4.723725 -17.366401 -3.210737 -14.661949 -0.031481 3.474114 11.547751 -0.729966 5.551072 -6.927625 0.240000 -3.152700 -8.704100 29.312868 12.422747 -12.439904 -1.106788 -3.710567 15.085527 -0.186551 -1.505918 -10.310076 -0.041900 -1.321800 3.634600 0.887909 4.049000 -6.795808 -6.676476 1.854164 -0.775364 11.869109 -2.277095 36.672563 5.316900 0.553200 15.015900 -73.025139 7.972922 62.955559 109.384806 -50.212966 -77.065954 -0.733826 -0.857088 -32.699992 -7.125000 0.000000 0.000000 87.387652 -10.812658 53.780892 -111.303865 50.425521 -69.068150 1.677435 -2.722812 -16.901458 7.125000 0.000000 0.000000 
-11.491638 17.864774 1.631645 -20.374953 82.500341 -5.337509 -17.300224 -3.435039 -14.912958 -0.021036 3.514773 11.635971 -0.692723 5.361129 -6.910121 0.249600 -3.214400 -8.876400 29.318897 12.349393 -12.530190 -1.074421 -3.639633 14.885525 -0.174104 -1.701536 -10.437283 -0.041500 -1.315400 3.617100 0.492638 4.506640 -6.965009 -7.658627 2.005956 -0.882981 10.656500 -3.541837 38.249083 4.437400 0.250200 16.049400 -71.743358 8.522948 63.921054 109.002941 -50.314551 -76.668926 -0.699136 -0.908554 -31.527000 -7.125000 0.000000 0.000000 88.008431 -10.890679 53.575946 -112.107760 50.156414 -69.983029 1.781037 -2.729507 -17.518682 7.125000 0.000000 0.000000 
-11.478648 17.871573 1.636414 -21.251772 82.772038 -5.984498 -17.240299 -3.676590 -15.148857 -0.013639 3.544835 11.696047 -0.661713 5.201118 -6.888953 0.251600 -3.227200 -8.912000 29.308623 12.304326 -12.641591 -1.046905 -3.580010 14.715293 -0.157403 -1.897641 -10.512874 -0.034800 -1.204700 3.312200 0.101907 4.972252 -7.132516 -8.608386 2.163262 -0.950505 9.435536 -4.848942 39.924165 3.531100 -0.032500 17.178000 -70.505714 9.074723 64.881168 108.653865 -50.411524 -76.299416 -0.661757 -0.953231 -30.318706 -7.125000 0.000000 0.000000 88.591165 -10.991194 53.393855 -112.928045 49.869259 -70.952560 1.888687 -2.748882 -18.247085 7.125000 0.000000 0.000000 
-11.466673 17.875531 1.641996 -22.350847 83.001446 -6.967989 -17.153547 -3.885728 -15.216513 -0.012577 3.553725 11.700395 -0.645982 5.119503 -6.867065 0.253200 -3.237600 -8.940900 29.341928 12.124036 -12.650247 -1.024377 -3.518016 14.547861 -0.146046 -2.008309 -10.532889 -0.031900 -1.153600 3.171500 0.022856 4.811362 -7.112185 -8.714580 2.081840 -0.495000 7.851138 -5.507186 43.499389 2.967400 -0.166700 20.229500 -70.243235 9.114374 64.105573 107.687101 -50.629089 -75.434833 -0.624271 -0.991421 -27.881627 -7.125000 0.000000 0.000000 87.314211 -10.599812 55.261256 -114.103550 49.399668 -72.529992 1.984538 -2.662928 -19.754169 7.125000 0.000000 0.000000 
-11.463019 17.878778 1.653464 -23.781853 83.246930 -8.389935 -17.013109 -4.035210 -15.231342 -0.004345 3.604030 11.823362 -0.618434 5.007530 -7.033183 0.207000 -2.929200 -8.081700 29.468933 12.008267 -12.483417 -0.994435 -3.451874 14.370197 -0.124989 -2.234217 -10.599272 -0.057600 -1.548000 4.258000 0.901024 3.641145 -6.728610 -5.677402 1.695358 0.811894 7.839458 -5.191774 43.220286 3.086100 -0.202100 20.018600 -72.657057 8.157462 62.349745 107.340906 -50.666661 -75.047035 -0.705736 -0.944749 -27.729090 -7.125000 0.000000 0.000000 82.840442 -9.836474 58.913007 -115.552224 48.812039 -74.986331 1.965639 -2.410462 -21.693957 7.125000 0.000000 0.000000 
-11.465962 17.882432 1.664728 -25.068686 83.474166 -9.728583 -16.886536 -4.200879 -15.257356 0.012393 3.694986 12.070160 -0.573160 4.849344 -7.407480 0.122900 -2.260300 -6.225500 29.602014 12.006823 -12.250228 -0.964647 -3.391910 14.216027 -0.094736 -2.532225 -10.664707 -0.113200 -2.169600 5.974600 1.485242 2.142407 -6.494797 -4.797162 1.003052 1.548590 2.583624 -2.825002 39.900436 0.223300 0.166000 17.286600 -74.679665 7.745450 59.267190 107.107806 -50.747722 -75.029056 -0.730244 -0.889548 -27.506446 -7.125000 0.000000 0.000000 80.643854 -9.838391 61.984220 -115.733757 48.717095 -75.193090 1.905632 -2.380656 -21.850075 7.125000 0.000000 0.000000 
-11.469819 17.884766 1.672948 -26.002264 83.611042 -10.723568 -16.804997 -4.289828 -15.215889 0.022628 3.743523 12.193024 -0.561174 4.800782 -7.455999 0.136800 -2.383800 -6.567700 29.692830 12.043790 -12.025101 -0.940628 -3.345968 14.099451 -0.072373 -2.773767 -10.752581 -0.143000 -2.437400 6.716000 1.597614 1.885821 -6.194746 -4.404292 0.904776 2.416045 3.358153 -3.493645 39.352791 0.424600 -0.038900 16.990500 -74.744870 6.980635 58.919600 106.967287 -50.773011 -74.933448 -0.726457 -0.892828 -27.545476 -7.125000 0.000000 0.000000 80.229732 -9.368321 62.246464 -115.807324 48.712311 -75.336798 1.909192 -2.330666 -21.947153 7.125000 0.000000 0.000000 
-11.463425 17.888013 1.680052 -27.820387 83.968169 -12.634740 -16.748098 -4.483417 -15.052252 0.030466 3.744534 12.198031 -0.568061 4.777223 -7.163153 0.263300 -3.301300 -9.118900 29.732332 11.926543 -11.658618 -0.892574 -3.234247 13.815114 -0.041928 -3.144153 -10.953702 -0.154900 -2.536400 6.990500 1.721770 1.522114 -6.000551 -4.022866 0.742181 3.021377 4.237500 -4.116342 38.702832 0.673000 -0.213400 16.576000 -74.899272 6.590949 58.539451 106.972425 -50.776253 -74.995933 -0.722655 -0.896540 -27.360854 -7.125000 0.000000 0.000000 79.817762 -9.045248 62.539663 -115.790204 48.753186 -75.316872 1.919121 -2.212146 -22.201722 7.125000 0.000000 0.000000 
-11.458554 17.887405 1.680762 -28.252248 83.933976 -12.921040 -16.690481 -4.697765 -15.038909 0.016564 3.718477 12.113448 -0.627860 5.067154 -7.056716 0.329500 -3.689000 -10.203300 29.751904 11.999077 -11.775925 -0.891019 -3.241469 13.809433 -0.047819 -3.112571 -10.975976 -0.161600 -2.589700 7.138300 1.808691 1.389766 -5.783455 -3.713245 0.694607 3.812524 5.251583 -4.864211 37.880067 0.973400 -0.463000 16.101000 -75.039908 6.008449 58.176453 106.932085 -50.783146 -75.025444 -0.721197 -0.900776 -27.040152 -7.125000 0.000000 0.000000 79.346782 -8.533631 62.919199 -115.702736 48.789968 -75.283998 1.943617 -2.167698 -22.914753 7.125000 0.000000 0.000000 
